<svg width="26" height="26" viewBox="0 0 26 26" fill="none" xmlns="http://www.w3.org/2000/svg">
<g clip-path="url(#clip0_8811_834)">
<path d="M7.02295 8.52187V21.8352C7.02295 22.4909 6.49091 23.023 5.83518 23.023H1.23241C0.576625 23.023 0.0507851 22.4909 0.0507851 21.8352V8.52187C0.0507851 7.86608 0.576676 7.33405 1.23241 7.33405H5.83518C6.49091 7.33405 7.02295 7.86608 7.02295 8.52187Z" fill="#41B15B"/>
<path d="M4.86237 19.5196C4.86237 20.2497 4.27031 20.8418 3.54017 20.8418C2.80344 20.8418 2.21143 20.2497 2.21143 19.5196C2.21143 18.7828 2.80344 18.1908 3.54017 18.1908C4.27031 18.1908 4.86237 18.7828 4.86237 19.5196Z" fill="white"/>
<path d="M7.02345 9.09062V22.2306C7.19972 22.4094 7.3838 22.5805 7.5756 22.7464C9.33055 24.2628 11.6195 25.1831 14.1235 25.1831H18.9658C20.0701 25.1831 20.9644 24.294 20.9644 23.1845C20.9644 22.6298 20.7389 22.1346 20.3863 21.7692C20.0208 21.4166 19.5153 21.1859 18.9658 21.1859H20.8192C21.9209 21.1859 22.823 20.2838 22.823 19.1847C22.823 18.6196 22.6053 18.1323 22.2398 17.7642C21.8716 17.4116 21.374 17.1861 20.8192 17.1861H22.4031C23.5074 17.1861 24.4094 16.284 24.4094 15.1823C24.4094 14.6327 24.1839 14.1195 23.8236 13.7618C23.4581 13.3963 22.963 13.1759 22.403 13.1759H23.9506C24.5002 13.1759 25.0005 12.9556 25.3659 12.5901C25.7315 12.2246 25.9492 11.7243 25.9492 11.1696C25.9492 10.0731 25.0471 9.171 23.9506 9.171H17.9108C18.7999 8.2378 19.4946 7.09202 19.7694 5.83224C20.0364 4.56982 19.8549 3.18557 19.1395 2.11241C18.8362 1.66132 18.4526 1.28549 18.0067 1.00553C17.1849 0.487105 16.1247 1.10146 16.0755 2.07092C16.0262 3.00931 15.7385 3.94251 15.2408 4.74613C15.1474 4.89385 15.0437 5.03903 14.9349 5.17381C13.0115 7.52239 9.78159 8.5307 7.80112 8.94548C7.51339 9.00505 7.25156 9.05172 7.02345 9.09062Z" fill="white"/>
</g>
<defs>
<clipPath id="clip0_8811_834">
<rect width="26" height="26" fill="white" transform="matrix(-1 0 0 1 26 0)"/>
</clipPath>
</defs>
</svg>
