<svg width="33" height="32" viewBox="0 0 33 32" fill="none" xmlns="http://www.w3.org/2000/svg">
<g clip-path="url(#clip0_8811_1206)">
<path fill-rule="evenodd" clip-rule="evenodd" d="M24.4042 12.7575L19.5141 11.8074C19.401 11.7918 19.2964 11.7251 19.2368 11.6176L16.8126 7.24072L14.4024 11.5899C14.3471 11.7001 14.215 11.8106 14.1307 11.8036L9.22095 12.7575L12.6166 16.3981C12.7004 16.4772 12.7468 16.5936 12.7314 16.7167L12.1214 21.6808L16.6466 19.5701C16.745 19.5216 16.8639 19.5165 16.971 19.5666L21.5038 21.6808L20.895 16.7273C20.8785 16.6179 20.9102 16.5023 20.9921 16.4157L24.4042 12.7575Z" fill="#FFC017"/>
<path fill-rule="evenodd" clip-rule="evenodd" d="M11.9662 16.7977L8.21231 12.7744C8.01721 12.5652 8.11295 12.2 8.43672 12.1469L13.8183 11.1014L16.4856 6.28833C16.6355 6.0177 17.028 6.0366 17.1539 6.31431L19.8068 11.1014L25.2101 12.1505C25.3683 12.1372 25.6906 12.4959 25.3953 12.7919L21.6589 16.7977L22.3304 22.2606C22.366 22.5502 22.0682 22.7755 21.7913 22.6421L16.8125 20.3199L11.8253 22.6462C11.5622 22.7689 11.2529 22.5577 11.2964 22.2477L11.9662 16.7977ZM30.4839 11.3923L21.5237 9.65169C21.4106 9.63611 21.3059 9.56938 21.2463 9.4619L16.8125 1.4585L12.3928 9.43414C12.3375 9.54435 12.2053 9.65486 12.1211 9.64785L3.14124 11.3923L9.35216 18.0513C9.4403 18.1323 9.50105 18.2256 9.47964 18.3835L8.36394 27.4628L16.6465 23.5995C16.745 23.551 16.8638 23.5459 16.971 23.596L25.2612 27.4628L24.1467 18.3942C24.1302 18.2848 24.1619 18.1692 24.2438 18.0826L30.4839 11.3923Z" fill="#FAA21F"/>
<path fill-rule="evenodd" clip-rule="evenodd" d="M8.71445 18.4649L2.78198 12.1045V14.8563L8.41563 20.8963L8.71445 18.4649Z" fill="#F88520"/>
<path fill-rule="evenodd" clip-rule="evenodd" d="M16.8125 24.3496L8.28442 28.3274V31.3492L16.6465 27.4489C16.745 27.4004 16.8638 27.3952 16.9709 27.4454L25.3406 31.3492V28.3274L16.8125 24.3496Z" fill="#F88520"/>
<path fill-rule="evenodd" clip-rule="evenodd" d="M24.9106 18.4649L25.2095 20.8965L30.8432 14.8563V12.1045L24.9106 18.4649Z" fill="#F88520"/>
<path d="M16.8413 6.00198L19.4942 10.7891L24.8975 11.8381C25.0558 11.8249 25.378 12.1835 25.0827 12.4796L21.3463 16.4854L22.0176 21.9482C22.0532 22.2378 21.7556 22.4632 21.4787 22.3297L16.5 20.0075L11.5127 22.3337C11.2496 22.4564 10.9403 22.2454 10.9838 21.9354L11.6536 16.4854L7.90033 12.4615C7.70523 12.2523 7.80038 11.8877 8.12415 11.8346L13.5057 10.7891L16.173 5.976C16.323 5.70538 16.7154 5.72427 16.8413 6.00198ZM18.9252 11.3046L16.5 6.92825L14.0898 11.2774C14.0345 11.3876 13.9024 11.4981 13.8181 11.4911L8.90836 12.445L12.304 16.0856C12.3878 16.1647 12.4342 16.2811 12.419 16.4042L11.8088 21.3683L16.334 19.2577C16.4325 19.2092 16.5513 19.204 16.6585 19.254L21.1912 21.3683L20.5824 16.4148C20.5659 16.3054 20.5976 16.1898 20.6789 16.1026L24.0916 12.445L19.2016 11.4949C19.0885 11.4794 18.9848 11.412 18.9252 11.3046Z" fill="black"/>
<path d="M16.8414 0.219786L21.5039 8.63339L30.9772 10.473C31.1355 10.4598 31.4578 10.8184 31.1624 11.1145L24.5981 18.1523L25.7751 27.7302C25.8107 28.0198 25.5131 28.2452 25.2362 28.1117L16.5 24.0369L7.75534 28.1157C7.49225 28.2383 7.18294 28.0273 7.2265 27.7173L8.40192 18.1523L1.82072 11.0963C1.62547 10.887 1.72114 10.5223 2.04454 10.4695L11.4962 8.63337L16.1731 0.193778C16.323 -0.0768442 16.7154 -0.0579214 16.8414 0.219786ZM20.9349 9.14889L16.5 1.14608L12.0803 9.12172C12.025 9.23193 11.8928 9.34244 11.8086 9.33543L2.82872 11.0799L9.05234 17.7525C9.13613 17.8316 9.18248 17.9481 9.16735 18.0711L8.05143 27.1503L16.334 23.2871C16.4325 23.2386 16.5513 23.2334 16.6585 23.2834L24.9486 27.1503L23.8342 18.0817C23.8177 17.9723 23.8494 17.8567 23.9307 17.7696L30.1713 11.0799L21.2112 9.33927C21.0981 9.32369 20.9944 9.25637 20.9349 9.14889Z" fill="black"/>
<path d="M31.2807 10.8412C31.2807 10.3475 30.5307 10.3475 30.5307 10.8412V14.5438L24.349 21.1715C24.0135 21.5316 24.5608 22.0421 24.8969 21.6813L31.1629 14.9632C31.2354 14.8948 31.2807 14.7979 31.2807 14.6904L31.2807 10.8412ZM25.7782 27.776C25.7782 27.2823 25.0282 27.2823 25.0282 27.776V31.0367L16.6585 27.1328C16.5513 27.0828 16.4325 27.0879 16.3341 27.1364L7.97197 31.0367V27.776C7.97197 27.2823 7.22197 27.2823 7.22197 27.776C7.22197 28.2533 7.17384 31.6051 7.25711 31.7837C7.34458 31.9714 7.56781 32.0526 7.75546 31.9651L16.5001 27.8862L25.2351 31.9604C25.4952 32.0863 25.7782 31.8966 25.7782 31.6252L25.7782 27.776ZM9.16725 18.0708C9.2269 17.5809 8.4831 17.4902 8.42316 17.98L8.10315 20.584L2.46949 14.5438V10.8412C2.46949 10.3475 1.71948 10.3475 1.71948 10.8412L1.71956 14.6904C1.71956 14.7821 1.75285 14.8739 1.82025 14.9462L8.08713 21.664C8.372 21.9901 8.77446 21.6659 8.74929 21.4719L9.16725 18.0708Z" fill="black"/>
</g>
<defs>
<clipPath id="clip0_8811_1206">
<rect width="32" height="32" fill="white" transform="translate(0.5)"/>
</clipPath>
</defs>
</svg>
