<svg width="33" height="32" viewBox="0 0 33 32" fill="none" xmlns="http://www.w3.org/2000/svg">
<g clip-path="url(#clip0_8811_1492)">
<path fill-rule="evenodd" clip-rule="evenodd" d="M24.0709 12.7575L19.1809 11.8074C19.0678 11.7918 18.9631 11.7251 18.9035 11.6176L16.4793 7.24072L14.0691 11.5899C14.0138 11.7001 13.8817 11.8106 13.7975 11.8036L8.8877 12.7575L12.2834 16.3981C12.3672 16.4772 12.4135 16.5936 12.3982 16.7167L11.7881 21.6808L16.3133 19.5701C16.4118 19.5216 16.5306 19.5165 16.6378 19.5666L21.1705 21.6808L20.5618 16.7273C20.5452 16.6179 20.577 16.5023 20.6588 16.4157L24.0709 12.7575Z" fill="#A7A7A7"/>
<path fill-rule="evenodd" clip-rule="evenodd" d="M11.6329 16.7977L7.87906 12.7744C7.68396 12.5652 7.7797 12.2 8.10347 12.1469L13.485 11.1014L16.1524 6.28833C16.3023 6.0177 16.6947 6.0366 16.8206 6.31431L19.4735 11.1014L24.8768 12.1505C25.0351 12.1372 25.3574 12.4959 25.062 12.7919L21.3257 16.7977L21.9972 22.2606C22.0328 22.5502 21.7349 22.7755 21.458 22.6421L16.4793 20.3199L11.4921 22.6462C11.229 22.7689 10.9196 22.5577 10.9632 22.2477L11.6329 16.7977ZM30.1506 11.3923L21.1904 9.65169C21.0773 9.63611 20.9727 9.56938 20.9131 9.4619L16.4793 1.4585L12.0595 9.43414C12.0042 9.54435 11.8721 9.65486 11.7879 9.64785L2.80798 11.3923L9.01891 18.0513C9.10705 18.1323 9.1678 18.2256 9.14639 18.3835L8.03069 27.4628L16.3133 23.5995C16.4117 23.551 16.5306 23.5459 16.6377 23.596L24.9279 27.4628L23.8135 18.3942C23.7969 18.2848 23.8287 18.1692 23.9105 18.0826L30.1506 11.3923Z" fill="#A7A7A7"/>
<path fill-rule="evenodd" clip-rule="evenodd" d="M8.3812 18.4649L2.44873 12.1045V14.8563L8.08238 20.8963L8.3812 18.4649Z" fill="#A7A7A7"/>
<path fill-rule="evenodd" clip-rule="evenodd" d="M16.4793 24.3496L7.95117 28.3274V31.3492L16.3133 27.4489C16.4117 27.4004 16.5306 27.3952 16.6377 27.4454L25.0074 31.3492V28.3274L16.4793 24.3496Z" fill="#A7A7A7"/>
<path fill-rule="evenodd" clip-rule="evenodd" d="M24.5774 18.4649L24.8763 20.8965L30.5099 14.8563V12.1045L24.5774 18.4649Z" fill="#A7A7A7"/>
<path d="M16.5081 6.00198L19.161 10.7891L24.5642 11.8381C24.7225 11.8249 25.0448 12.1835 24.7494 12.4796L21.0131 16.4854L21.6844 21.9482C21.72 22.2378 21.4223 22.4632 21.1454 22.3297L16.1667 20.0075L11.1794 22.3337C10.9163 22.4564 10.607 22.2454 10.6506 21.9354L11.3203 16.4854L7.56708 12.4615C7.37197 12.2523 7.46713 11.8877 7.7909 11.8346L13.1725 10.7891L15.8398 5.976C15.9897 5.70538 16.3821 5.72427 16.5081 6.00198ZM18.592 11.3046L16.1667 6.92825L13.7565 11.2774C13.7012 11.3876 13.5691 11.4981 13.4849 11.4911L8.5751 12.445L11.9708 16.0856C12.0546 16.1647 12.1009 16.2811 12.0858 16.4042L11.4755 21.3683L16.0007 19.2577C16.0992 19.2092 16.2181 19.204 16.3252 19.254L20.858 21.3683L20.2492 16.4148C20.2326 16.3054 20.2644 16.1898 20.3456 16.1026L23.7584 12.445L18.8683 11.4949C18.7552 11.4794 18.6515 11.412 18.592 11.3046Z" fill="black"/>
<path d="M16.5081 0.219786L21.1706 8.63339L30.644 10.473C30.8022 10.4598 31.1245 10.8184 30.8292 11.1145L24.2649 18.1523L25.4419 27.7302C25.4774 28.0198 25.1798 28.2452 24.9029 28.1117L16.1668 24.0369L7.42209 28.1157C7.15899 28.2383 6.84969 28.0273 6.89324 27.7173L8.06867 18.1523L1.48747 11.0963C1.29222 10.887 1.38788 10.5223 1.71129 10.4695L11.163 8.63337L15.8398 0.193778C15.9898 -0.0768442 16.3822 -0.0579214 16.5081 0.219786ZM20.6016 9.14889L16.1668 1.14608L11.747 9.12172C11.6917 9.23193 11.5596 9.34244 11.4753 9.33543L2.49547 11.0799L8.71909 17.7525C8.80287 17.8316 8.84923 17.9481 8.8341 18.0711L7.71818 27.1503L16.0008 23.2871C16.0992 23.2386 16.2181 23.2334 16.3253 23.2834L24.6154 27.1503L23.5009 18.0817C23.4844 17.9723 23.5161 17.8567 23.5974 17.7696L29.8381 11.0799L20.8779 9.33927C20.7648 9.32369 20.6612 9.25637 20.6016 9.14889Z" fill="black"/>
<path d="M30.9474 10.8412C30.9474 10.3475 30.1974 10.3475 30.1974 10.8412V14.5438L24.0157 21.1715C23.6802 21.5316 24.2275 22.0421 24.5636 21.6813L30.8296 14.9632C30.9022 14.8948 30.9474 14.7979 30.9474 14.6904L30.9474 10.8412ZM25.4449 27.776C25.4449 27.2823 24.6949 27.2823 24.6949 27.776V31.0367L16.3252 27.1328C16.2181 27.0828 16.0993 27.0879 16.0008 27.1364L7.63872 31.0367V27.776C7.63872 27.2823 6.88872 27.2823 6.88872 27.776C6.88872 28.2533 6.84059 31.6051 6.92385 31.7837C7.01133 31.9714 7.23456 32.0526 7.42221 31.9651L16.1668 27.8862L24.9019 31.9604C25.162 32.0863 25.4449 31.8966 25.4449 31.6252L25.4449 27.776ZM8.834 18.0708C8.89365 17.5809 8.14985 17.4902 8.0899 17.98L7.7699 20.584L2.13623 14.5438V10.8412C2.13623 10.3475 1.38623 10.3475 1.38623 10.8412L1.3863 14.6904C1.3863 14.7821 1.4196 14.8739 1.48699 14.9462L7.75388 21.664C8.03875 21.9901 8.44121 21.6659 8.41604 21.4719L8.834 18.0708Z" fill="black"/>
</g>
<defs>
<clipPath id="clip0_8811_1492">
<rect width="32" height="32" fill="white" transform="translate(0.166748)"/>
</clipPath>
</defs>
</svg>
